<svg width="130" height="68" viewBox="0 0 130 68" fill="none" xmlns="http://www.w3.org/2000/svg">
<g clip-path="url(#clip0_3061_542)">
<path d="M88.9724 0.0557545C92.2339 0.0557545 95.5042 -0.0902838 98.7562 0.0862583C105.508 0.452984 111.547 2.91494 116.887 7.05244C120.717 10.0216 123.799 13.6784 126.032 18.035C127.588 21.0643 128.714 24.3011 129.376 27.6493C130.131 31.4454 130.202 35.3485 129.586 39.1703C128.36 46.9237 124.887 53.5175 119.169 58.8948C115.419 62.4201 111.098 64.9294 106.252 66.4893C102.923 67.5606 99.4607 67.9562 95.9741 67.9635C90.5358 67.9755 85.0983 67.9843 79.66 67.9635C75.9927 67.9466 73.1908 66.324 71.2938 63.1487C70.5367 61.8818 70.1381 60.4286 70.1416 58.9478C70.1242 55.5718 70.1646 52.1959 70.1186 48.8215C70.1051 47.8184 70.4356 47.5031 71.4221 47.5496C73.2558 47.6355 75.0957 47.6298 76.9317 47.5913C77.736 47.5761 78.2788 47.7735 78.782 48.4877C80.3478 50.7001 82.6046 51.4343 85.1704 51.0042C87.5405 50.607 89.2822 49.12 90.0104 46.8571C90.7133 44.6736 90.4256 42.4507 88.8115 40.6235C87.0959 38.6808 84.9287 38.0556 82.4461 38.5901C80.7028 38.9632 79.32 39.9222 78.4389 41.5231C78.0847 42.1651 77.53 42.1771 76.9198 42.1763C71.5941 42.1683 66.2691 42.1891 60.9441 42.1546C60.0384 42.149 59.4306 42.409 58.8569 43.1529C55.589 47.3891 49.7339 46.6332 47.5714 41.7309C46.1491 38.505 48.1523 34.2255 51.5121 33.3099C54.9099 32.3846 57.0201 33.1421 59.1192 36.0671C59.49 36.5855 59.9663 36.7179 60.5669 36.7444C64.9894 36.941 69.4134 36.8102 73.8366 36.8247C81.8241 36.8509 89.8121 36.8485 97.8006 36.8174C98.7229 36.8174 99.4052 37.0293 99.9837 37.8117C102.84 41.6723 108.49 40.9212 110.816 36.88C112.546 33.8732 110.869 29.385 107.552 28.1171C104.553 26.9704 101.738 27.7384 99.8062 30.3448C99.1405 31.2419 98.3608 31.461 97.3251 31.4586C79.5118 31.4308 61.6982 31.4102 43.8844 31.3968C42.802 31.3968 42.1268 31.7106 41.4866 32.6133C39.9889 34.7254 36.8803 35.5239 34.2218 34.6323C31.8937 33.8507 30.0814 31.282 30.022 28.6772C29.9562 25.9111 31.5323 23.4452 34.0918 22.5657C37.2939 21.4655 40.0745 22.1981 41.8336 24.9658C42.3582 25.7908 42.9485 25.9729 43.8242 25.9665C48.2498 25.9352 52.6746 25.9521 57.1002 25.9521C64.8253 25.9521 72.5521 25.9641 80.2765 25.9376C81.2979 25.9376 81.9572 26.2434 82.6062 27.114C84.1213 29.1491 86.302 29.9018 88.7315 29.43C91.3464 28.9212 93.0897 27.3435 93.8354 24.6248C94.6428 21.6749 92.6697 18.4394 90.4914 17.4684C87.5413 16.1532 84.2575 16.8786 82.4881 19.4176C81.79 20.4223 81.0324 20.72 79.8922 20.6951C76.969 20.6309 74.0442 20.6719 71.1202 20.6743C70.6139 20.6743 70.1226 20.7112 70.1353 19.9521C70.2058 15.8956 69.8856 11.8255 70.3001 7.7867C70.6432 4.44524 72.7771 2.29223 75.6266 0.833347C76.7622 0.252363 78.0039 0.00119949 79.301 0.00842166C82.5261 0.0276808 85.7512 0.0148281 88.9763 0.0148281L88.9724 0.0557545ZM36.4564 31.0886C37.9128 31.1015 39.1727 29.913 39.1775 28.5208C39.1822 27.1494 37.9001 25.8574 36.5403 25.8638C35.0673 25.8694 33.8636 27.0338 33.8588 28.4566C33.8533 29.9516 34.9587 31.075 36.4564 31.0886ZM56.1952 39.3019C56.2856 37.912 55.0803 36.7741 53.57 36.7589C53.2271 36.758 52.8875 36.826 52.5708 36.959C52.2541 37.092 51.9666 37.2873 51.7249 37.5336C51.4832 37.7799 51.2922 38.0723 51.1629 38.3939C51.0336 38.7154 50.9686 39.0598 50.9717 39.407C50.9859 40.8763 52.1238 41.9508 53.6556 41.9412C55.1754 41.9275 56.2119 40.8522 56.1952 39.3019Z" fill="white"/>
<path d="M41.2978 0.0332921C44.4856 0.0332921 47.6766 0.132012 50.8589 0.0100371C55.6419 -0.172925 60.6547 4.53753 59.8837 10.5552C59.3242 14.9214 55.2631 18.7403 50.523 18.6954C45.1235 18.6408 39.7232 18.6785 34.323 18.6842C28.3879 18.6898 23.7974 21.2521 20.8632 26.4328C16.9399 33.3636 18.917 41.9051 25.3347 46.4895C28.0289 48.4155 31.0171 49.3094 34.3309 49.2733C39.7676 49.2139 45.2059 49.2235 50.6426 49.2733C53.6783 49.2998 56.2021 50.5203 58.0603 52.9927C61.6896 57.8227 59.8765 64.7729 54.3875 67.206C53.0888 67.7813 51.7258 67.9482 50.3463 67.9498C44.2725 67.9579 38.1915 68.1047 32.1256 67.8696C22.925 67.5149 15.2299 63.6711 8.93742 56.9023C5.27967 52.9702 2.83113 48.3232 1.33031 43.1906C0.125059 39.0587 -0.308388 34.7575 0.22094 30.4948C1.49751 20.2137 6.24324 11.9058 14.7268 5.95789C18.4342 3.35002 22.6369 1.55184 27.0677 0.677673C29.8586 0.115948 32.6494 0.181761 35.4466 0.0870705C37.3944 0.0212685 39.3453 0.0742186 41.2946 0.0742186L41.2978 0.0332921Z" fill="#1C4EFE"/>
<path d="M104.982 36.6127C103.318 36.6127 102.255 35.6064 102.235 34.0087C102.217 32.4672 103.495 31.1511 104.975 31.1872C106.667 31.2298 107.757 32.3645 107.737 34.0641C107.719 35.669 106.694 36.6167 104.982 36.6127Z" fill="white"/>
<path d="M87.6291 25.8715C86.0046 25.8835 84.82 24.7552 84.8319 23.2073C84.8438 22.4522 85.1507 21.7327 85.6853 21.2062C86.22 20.6798 86.9389 20.3894 87.6845 20.3987C89.0831 20.4107 90.4944 21.8351 90.3993 23.2659C90.2908 24.9045 89.118 25.9292 87.6291 25.8715Z" fill="white"/>
<path d="M83.901 42.1164C85.714 41.964 86.6989 43.4301 86.7045 44.7718C86.71 46.1865 85.3994 47.5226 84.0151 47.5587C82.4905 47.5989 81.1259 46.2363 81.1679 44.7172C81.2123 43.0978 82.2448 42.1156 83.901 42.1164Z" fill="white"/>
</g>
<defs>
<clipPath id="clip0_3061_542">
<rect width="130" height="68" fill="white"/>
</clipPath>
</defs>
</svg>
