<svg width="194" height="53" viewBox="0 0 194 53" fill="none" xmlns="http://www.w3.org/2000/svg">
<g clip-path="url(#clip0_3037_548)">
<path d="M56.4839 0.0406293C58.5544 0.0406293 60.6306 -0.0523127 62.6953 0.0595077C66.985 0.293314 70.8157 1.86171 74.206 4.49602C76.6279 6.36001 78.611 8.74806 80.0114 11.487C80.9993 13.4171 81.7137 15.4793 82.1334 17.6124C82.6129 20.0293 82.6584 22.5142 82.2678 24.9475C81.4885 29.8851 79.2836 34.082 75.6545 37.5048C73.3105 39.718 70.5086 41.3703 67.454 42.3407C65.3407 43.0233 63.1443 43.2745 60.9266 43.2789C57.4748 43.2861 54.0216 43.2919 50.5698 43.2789C48.2419 43.2687 46.4631 42.2347 45.2577 40.2118C44.7786 39.406 44.5259 38.4824 44.5271 37.5412C44.517 35.3919 44.5428 33.2426 44.5128 31.0948C44.5042 30.4558 44.7129 30.2554 45.3407 30.2844C46.5046 30.3396 47.6728 30.3338 48.8382 30.3106C49.3487 30.3019 49.6961 30.4268 50.0136 30.8827C51.0145 32.2899 52.4444 32.7576 54.0688 32.4802C55.573 32.2275 56.6783 31.2807 57.1416 29.8401C57.5878 28.4488 57.4047 27.0344 56.3809 25.8712C55.2913 24.6339 53.9129 24.2374 52.3386 24.5758C51.8048 24.676 51.2996 24.8956 50.8596 25.2186C50.4196 25.5416 50.0559 25.9599 49.7948 26.4433C49.5703 26.8529 49.2229 26.8601 48.8311 26.8587C45.4493 26.8587 42.0691 26.8674 38.6888 26.8456C38.1168 26.8456 37.7279 27.0068 37.3633 27.4817C35.2885 30.1784 31.5722 29.6963 30.1995 26.5755C29.2958 24.5221 30.5684 21.7962 32.7004 21.2139C34.8581 20.6258 36.1965 21.1079 37.5277 22.9696C37.7636 23.2993 38.0668 23.3835 38.4471 23.4053C41.2554 23.5302 44.0638 23.4474 46.8721 23.4561C51.9425 23.4736 57.0134 23.4736 62.0848 23.4561C62.671 23.4561 63.1043 23.5912 63.4718 24.0893C65.2849 26.5479 68.8711 26.0687 70.3482 23.4953C71.4463 21.5813 70.3825 18.7234 68.2762 17.9174C66.373 17.1913 64.5857 17.6749 63.3588 19.3347C62.9299 19.9069 62.4408 20.0449 61.7859 20.0449C50.4773 20.0255 39.1687 20.0124 27.8601 20.0057C27.1724 20.0057 26.7434 20.2046 26.3373 20.7797C25.3864 22.1244 23.4132 22.6327 21.7245 22.0649C20.2474 21.5668 19.0963 19.9316 19.0577 18.2732C19.0148 16.5116 20.0157 14.9418 21.6401 14.3827C23.6734 13.6813 25.4393 14.1489 26.5561 15.9104C26.8893 16.4361 27.2625 16.5523 27.8201 16.5479C30.6285 16.5276 33.4382 16.5378 36.248 16.5378C41.1525 16.5378 46.057 16.5465 50.9616 16.5291C51.6093 16.5291 52.0283 16.7237 52.4401 17.2784C53.4024 18.5738 54.7866 19.053 56.3294 18.7524C57.991 18.4286 59.0977 17.4236 59.5696 15.6926C60.0815 13.8149 58.8289 11.7556 57.4462 11.137C55.573 10.2991 53.4882 10.7623 52.3672 12.3786C51.9239 13.0176 51.4435 13.2064 50.7199 13.1904C48.8611 13.1512 47.0022 13.1774 45.1433 13.1788C44.8216 13.1788 44.5099 13.202 44.5185 12.7185C44.5628 10.1364 44.3598 7.54422 44.6229 4.9738C44.8402 2.84631 46.1958 1.47542 48.0046 0.546C48.7293 0.183782 49.5292 0.00397241 50.3367 0.021751C52.3843 0.0333687 54.432 0.021751 56.4853 0.021751L56.4839 0.0406293ZM23.1443 19.7907C24.0681 19.7907 24.8688 19.0414 24.8717 18.1541C24.8745 17.2668 24.0609 16.4594 23.1973 16.4637C22.2621 16.4637 21.4971 17.2087 21.4943 18.1134C21.4892 18.335 21.5284 18.5553 21.6095 18.761C21.6906 18.9668 21.8119 19.1537 21.9661 19.3104C22.1204 19.4672 22.3043 19.5906 22.5068 19.6732C22.7093 19.7557 22.9262 19.7957 23.1443 19.7907ZM35.676 25.0187C35.7332 24.1343 34.9682 23.4097 34.0087 23.3995C33.7912 23.3991 33.5758 23.4425 33.3748 23.5271C33.1739 23.6117 32.9915 23.7359 32.8381 23.8926C32.6846 24.0492 32.5633 24.2351 32.481 24.4396C32.3987 24.6441 32.3571 24.8631 32.3586 25.0841C32.3672 26.0193 33.0907 26.7033 34.0631 26.6975C35.0354 26.6917 35.686 26.0106 35.676 25.0187Z" fill="#070C1F"/>
<path d="M26.2174 0.0218952C28.2407 0.0218952 30.2669 0.0843395 32.2873 0.00737219C35.323 -0.110257 38.5059 2.89002 38.0169 6.72096C37.6608 9.50049 35.0827 11.9344 32.0728 11.9025C28.6411 11.8676 25.2093 11.8923 21.789 11.9025C18.0212 11.9025 15.107 13.5347 13.2439 16.84C10.753 21.2533 12.0085 26.6904 16.0823 29.6093C17.7475 30.8109 19.7511 31.4324 21.7933 31.381C25.245 31.3432 28.6982 31.3505 32.15 31.381C34.0761 31.3984 35.679 32.1754 36.8587 33.7496C37.3959 34.4669 37.7653 35.2989 37.9391 36.1827C38.1129 37.0664 38.0865 37.9788 37.8618 38.8506C37.6371 39.7224 37.22 40.5309 36.6422 41.2149C36.0643 41.8988 35.3409 42.4403 34.5265 42.7983C33.7029 43.1657 32.8378 43.2717 31.9613 43.2732C28.1006 43.2732 24.2398 43.3705 20.3934 43.2224C14.5537 42.9958 9.66915 40.5488 5.67259 36.2387C3.35043 33.7336 1.79613 30.7769 0.845249 27.5094C0.063683 24.8933 -0.17632 22.1413 0.140319 19.4264C0.951072 12.8798 3.96671 7.59083 9.35028 3.80346C11.7046 2.14438 14.3723 0.999616 17.1847 0.441585C18.9563 0.0857925 20.728 0.126454 22.5039 0.0669135C23.7408 0.0247993 24.9791 0.0582006 26.2216 0.0582006L26.2174 0.0218952Z" fill="#1C4EFE"/>
<path d="M117.083 39.7166C116.572 39.7994 116.444 40.2466 116.163 40.5051C114.19 42.3277 111.812 42.9129 109.234 42.7778C106.436 42.6326 103.944 41.6843 101.965 39.5931C100.323 37.8636 99.4622 35.7666 99.0376 33.4299C98.6966 31.5238 98.7767 29.5646 99.2721 27.6937C100.186 24.1532 102.225 21.516 105.679 20.2119C108.443 19.1678 111.245 19.1416 114.013 20.2467C115.051 20.6621 115.895 21.3882 116.638 22.2145L117.159 22.7954C117.159 22.0882 117.136 21.5915 117.159 21.0992C117.206 20.2409 117.425 20.0333 118.243 20.0304C119.624 20.0304 121.006 20.0304 122.389 20.0304C123.144 20.0304 123.353 20.2467 123.353 21.0251C123.353 28.125 123.384 35.2249 123.34 42.3248C123.324 44.9605 122.567 47.3799 120.748 49.3578C119.481 50.7345 117.909 51.6291 116.161 52.194C113.026 53.2106 109.84 53.2106 106.663 52.4641C105.141 52.124 103.694 51.4996 102.396 50.6227C101.471 49.9837 101.328 49.5945 101.824 48.6027C102.193 47.8606 102.589 47.1316 102.993 46.4069C103.337 45.7854 103.708 45.6808 104.344 46.0221C106.705 47.2797 109.197 47.9187 111.867 47.5527C113.714 47.3 115.36 46.5972 116.374 44.8778C116.896 43.9934 117.057 42.9899 117.08 41.9733C117.096 41.2414 117.083 40.4979 117.083 39.7166ZM105.295 31.1354C105.309 34.5845 107.583 36.9051 111.076 36.8964C114.688 36.8877 116.755 34.7398 116.841 31.2197C116.924 27.8171 114.738 25.3556 111.064 25.3585C107.656 25.3629 105.249 27.8171 105.295 31.1354Z" fill="#070C1F"/>
<path d="M181.683 31.6845V42.1172C181.683 43.1177 181.551 43.2644 180.587 43.2717C179.278 43.2814 177.968 43.2814 176.658 43.2717C175.77 43.2717 175.657 43.1497 175.633 42.2813C175.616 41.7744 175.597 41.2647 175.573 40.7622C175.564 40.6011 175.603 40.3905 175.398 40.3266C175.194 40.2627 175.112 40.4979 175.039 40.6025C174.095 41.8397 172.81 42.7638 171.347 43.2572C166.943 44.7878 161.64 43.2572 158.929 39.0254C157.249 36.4027 156.605 33.507 156.89 30.4573C157.309 25.9656 159.229 22.3729 163.439 20.4008C165.539 19.4162 167.758 19.2492 170.039 19.6747C172.094 20.0551 173.778 21.0209 175.077 22.6836C175.154 22.7824 175.24 22.9479 175.417 22.8753C175.594 22.8027 175.569 22.6444 175.574 22.505C175.6 21.9503 175.641 21.3955 175.629 20.8422C175.616 20.2889 175.859 20.0435 176.382 20.0435C177.882 20.0435 179.385 20.0435 180.882 20.0435C181.566 20.0435 181.69 20.453 181.688 21.0426C181.677 24.5831 181.683 28.1353 181.683 31.6845ZM163.313 31.6772C163.17 35.3832 165.927 37.8912 169.31 37.8607C172.873 37.8273 175.172 35.3455 175.194 31.6453C175.208 27.9203 172.763 25.4283 169.26 25.4182C165.954 25.408 163.136 28.0162 163.313 31.6772Z" fill="#070C1F"/>
<path d="M143.104 31.8107C143.104 29.8067 143.087 27.8041 143.114 25.8C143.114 25.2554 142.946 25.0739 142.418 25.103C141.753 25.1393 141.085 25.1218 140.416 25.103C139.64 25.087 139.441 24.8866 139.437 24.1213C139.437 23.0597 139.437 21.9967 139.437 20.9351C139.437 20.2976 139.723 20.0086 140.349 20.0246C141.015 20.042 141.683 19.9941 142.351 20.0391C142.923 20.0783 143.143 19.9069 143.124 19.2839C143.08 17.8128 143.104 16.3403 143.111 14.8677C143.111 13.9964 143.254 13.8512 144.112 13.8512C145.638 13.8512 147.163 13.8512 148.688 13.8512C149.58 13.8512 149.689 13.9587 149.689 14.8387C149.689 16.3112 149.736 17.7867 149.672 19.2549C149.64 19.949 149.901 20.0609 150.482 20.0362C151.386 19.9984 152.291 20.0362 153.199 20.0231C153.816 20.0144 154.116 20.2584 154.097 20.9235C154.069 22.0097 154.063 23.1018 154.097 24.1822C154.12 24.8648 153.776 25.0928 153.192 25.0986C152.241 25.1102 151.288 25.1218 150.332 25.0986C149.853 25.0855 149.673 25.2191 149.676 25.7463C149.699 29.1735 149.676 32.6022 149.695 36.0294C149.703 37.4119 150.467 38.0175 151.715 38.1046C152.187 38.1366 152.665 38.0669 153.145 38.0523C153.879 38.0306 154.084 38.2266 154.087 38.9513C154.087 39.9402 154.056 40.9321 154.102 41.9196C154.129 42.5121 153.816 42.9042 153.377 43.0349C150.54 43.8656 147.761 43.9062 145.255 42.0358C143.875 41.009 143.263 39.4886 143.187 37.8142C143.097 35.8145 143.166 33.809 143.166 31.8064L143.104 31.8107Z" fill="#070C1F"/>
<path d="M193.996 26.2996V42.0184C193.996 43.093 193.82 43.2702 192.756 43.2731C191.375 43.2731 189.993 43.2731 188.609 43.2731C187.514 43.2731 187.361 43.1133 187.36 41.9661C187.36 40.3202 187.36 38.6783 187.36 37.0402V10.9599C187.36 9.39147 187.39 9.36243 188.894 9.36243C190.251 9.36243 191.611 9.36243 192.965 9.36243C193.837 9.36243 193.993 9.52653 193.993 10.4342C194 15.7231 194.001 21.0116 193.996 26.2996Z" fill="#070C1F"/>
<path d="M94.3748 31.6336C94.3748 35.1354 94.3748 38.6357 94.3748 42.1346C94.3748 43.0902 94.1932 43.2746 93.2495 43.2775C91.7738 43.2775 90.2963 43.2775 88.8168 43.2775C87.9703 43.2775 87.7144 43.0146 87.7144 42.1578C87.7144 35.1582 87.7144 28.1585 87.7144 21.1588C87.7144 20.2657 87.9389 20.0377 88.7968 20.0363C90.322 20.0363 91.8472 20.0363 93.3725 20.0363C94.2061 20.0363 94.3734 20.2149 94.3734 21.0615C94.3763 24.5865 94.3767 28.1106 94.3748 31.6336Z" fill="#070C1F"/>
<path d="M135.642 31.6989C135.642 35.1503 135.642 38.6022 135.642 42.0546C135.642 43.1148 135.483 43.2789 134.453 43.2803C132.978 43.2803 131.502 43.2876 130.021 43.2803C129.264 43.2803 128.994 43.0116 128.993 42.242C128.993 35.1687 128.993 28.0955 128.993 21.0222C128.993 20.2627 129.231 20.0434 129.985 20.0405C131.51 20.0405 133.035 20.0405 134.561 20.0405C135.487 20.0405 135.637 20.1857 135.639 21.1268C135.65 24.6489 135.651 28.1729 135.642 31.6989Z" fill="#070C1F"/>
<path d="M94.6835 12.2523C94.7064 14.4307 93.0878 15.9177 91.1317 15.9134C88.9082 15.9134 87.504 14.39 87.4325 12.2901C87.3639 10.2483 88.9954 8.70749 91.0916 8.65957C93.0735 8.60874 94.7807 10.2904 94.6835 12.2523Z" fill="#070C1F"/>
<path d="M135.95 12.2756C135.942 14.3363 134.369 15.9875 132.356 15.9236C130.211 15.8553 128.681 14.2724 128.729 12.2248C128.778 10.1539 130.265 8.66106 132.371 8.66541C134.453 8.67122 135.959 10.1888 135.95 12.2756Z" fill="#070C1F"/>
<path d="M66.6474 23.3123C65.5893 23.3123 64.9158 22.6719 64.903 21.6539C64.8915 20.6737 65.7037 19.8343 66.6431 19.8575C67.717 19.8851 68.4091 20.6069 68.3962 21.6902C68.3848 22.7097 67.7356 23.3138 66.6474 23.3123Z" fill="#070C1F"/>
<path d="M55.6317 16.4725C54.6007 16.4725 53.8486 15.7624 53.8558 14.7763C53.8625 14.295 54.0571 13.8361 54.3968 13.5004C54.7365 13.1646 55.1935 12.9795 55.6674 12.9857C56.5554 12.993 57.4505 13.8992 57.3905 14.8112C57.3204 15.8568 56.5826 16.5088 55.6317 16.4725Z" fill="#070C1F"/>
<path d="M53.2637 26.8151C54.4076 26.7178 55.041 27.6516 55.0439 28.5055C55.0439 29.4073 54.216 30.2569 53.3366 30.2801C52.3685 30.3048 51.502 29.4378 51.5292 28.4706C51.5578 27.4396 52.2127 26.8151 53.2637 26.8151Z" fill="#070C1F"/>
</g>
<defs>
<clipPath id="clip0_3037_548">
<rect width="194" height="53" fill="white"/>
</clipPath>
</defs>
</svg>
