<svg id="Capa_1" data-name="Capa 1" xmlns="http://www.w3.org/2000/svg" xmlns:xlink="http://www.w3.org/1999/xlink" viewBox="0 0 1080.33 1015.26"><defs><style>.cls-1{fill:url(#Degradado_sin_nombre_26);}.cls-2{fill:#fff;}.cls-3{fill:url(#Degradado_sin_nombre_85);}.cls-4{fill:url(#Degradado_sin_nombre_85-2);}.cls-5{fill:url(#Degradado_sin_nombre_85-3);}.cls-6{fill:url(#Degradado_sin_nombre_85-4);}.cls-7{fill:#ccc;}.cls-8{fill:#0071bc;}</style><linearGradient id="Degradado_sin_nombre_26" x1="-175.27" y1="952.55" x2="1171.04" y2="32.17" gradientUnits="userSpaceOnUse"><stop offset="0" stop-color="#369"/><stop offset="1" stop-color="#00263d"/></linearGradient><linearGradient id="Degradado_sin_nombre_85" x1="-164.51" y1="559.2" x2="1028.84" y2="-171.36" gradientUnits="userSpaceOnUse"><stop offset="0" stop-color="#d7e047"/><stop offset="0.16" stop-color="#cede49"/><stop offset="0.43" stop-color="#b4d74e"/><stop offset="0.78" stop-color="#8bcc55"/><stop offset="0.99" stop-color="#6dc45b"/></linearGradient><linearGradient id="Degradado_sin_nombre_85-2" x1="-75.41" y1="673.59" x2="679.42" y2="109.71" xlink:href="#Degradado_sin_nombre_85"/><linearGradient id="Degradado_sin_nombre_85-3" x1="54.51" y1="844.41" x2="809.3" y2="280.55" xlink:href="#Degradado_sin_nombre_85"/><linearGradient id="Degradado_sin_nombre_85-4" x1="648.1" y1="688.22" x2="1051.34" y2="222.26" xlink:href="#Degradado_sin_nombre_85"/></defs><path class="cls-1" d="M1032.84,35.75h-986A47.15,47.15,0,0,0-.33,82.91V844.45a47.16,47.16,0,0,0,47.16,47.17H457.92v99.62H305.32a8.63,8.63,0,0,0-8.64,8.63v42.51a8.64,8.64,0,0,0,8.64,8.63H772.88a8.64,8.64,0,0,0,8.63-8.63V999.87a8.63,8.63,0,0,0-8.63-8.63H621.74V891.62h411.1A47.17,47.17,0,0,0,1080,844.45V82.91A47.16,47.16,0,0,0,1032.84,35.75Z" transform="translate(0.33 -35.75)"/><rect class="cls-2" x="42.06" y="96.9" width="996.21" height="715.83" rx="22.01"/><path class="cls-3" d="M66.36,43.77H1014a24.3,24.3,0,0,1,24.3,24.3V201.15a0,0,0,0,1,0,0H42.06a0,0,0,0,1,0,0V68.06a24.3,24.3,0,0,1,24.3-24.3Z"/><rect class="cls-4" x="87.38" y="274.08" width="515.81" height="170.46" rx="13.5"/><rect class="cls-2" x="332.07" y="81.6" width="639.79" height="79.7" rx="7.36"/><rect class="cls-5" x="87.38" y="541.95" width="515.81" height="170.46" rx="13.43"/><rect class="cls-6" x="693.86" y="285.15" width="245.93" height="416.19" rx="13.32"/><circle class="cls-2" cx="166.03" cy="121.45" r="39.85"/><circle class="cls-2" cx="265.66" cy="121.45" r="39.85"/><path class="cls-7" d="M978.79,779.16H961.08a6.65,6.65,0,0,1,0-13.29h4.43v-4.42a6.64,6.64,0,1,1,13.28,0Z" transform="translate(0.33 -35.75)"/><path class="cls-7" d="M921.86,779.16H898.78a6.65,6.65,0,0,1,0-13.29h23.08a6.65,6.65,0,0,1,0,13.29Zm-62.3,0H836.48a6.65,6.65,0,0,1,0-13.29h23.08a6.65,6.65,0,0,1,0,13.29Zm-62.31,0H774.18a6.65,6.65,0,0,1,0-13.29h23.07a6.65,6.65,0,1,1,0,13.29Zm-62.3,0H711.88a6.65,6.65,0,0,1,0-13.29H735a6.65,6.65,0,0,1,0,13.29Z" transform="translate(0.33 -35.75)"/><path class="cls-7" d="M672.65,779.16H654.94V761.45a6.64,6.64,0,1,1,13.28,0v4.42h4.43a6.65,6.65,0,0,1,0,13.29Z" transform="translate(0.33 -35.75)"/><path class="cls-7" d="M661.58,730.45a6.64,6.64,0,0,1-6.64-6.64V701.67a6.64,6.64,0,0,1,13.28,0v22.14A6.64,6.64,0,0,1,661.58,730.45Zm0-59.77a6.64,6.64,0,0,1-6.64-6.64V641.9a6.64,6.64,0,0,1,13.28,0V664A6.64,6.64,0,0,1,661.58,670.68Zm0-59.77a6.64,6.64,0,0,1-6.64-6.64V582.13a6.64,6.64,0,0,1,13.28,0v22.14A6.64,6.64,0,0,1,661.58,610.91Zm0-59.78a6.64,6.64,0,0,1-6.64-6.64V522.36a6.64,6.64,0,1,1,13.28,0v22.13A6.64,6.64,0,0,1,661.58,551.13Zm0-59.77a6.64,6.64,0,0,1-6.64-6.64V462.58a6.64,6.64,0,0,1,13.28,0v22.14A6.64,6.64,0,0,1,661.58,491.36Zm0-59.77a6.64,6.64,0,0,1-6.64-6.64V402.81a6.64,6.64,0,0,1,13.28,0V425A6.64,6.64,0,0,1,661.58,431.59Zm0-59.77a6.64,6.64,0,0,1-6.64-6.64V343a6.64,6.64,0,0,1,13.28,0v22.14A6.64,6.64,0,0,1,661.58,371.82Z" transform="translate(0.33 -35.75)"/><path class="cls-7" d="M661.58,312a6.64,6.64,0,0,1-6.64-6.64V287.69h17.71a6.65,6.65,0,0,1,0,13.29h-4.43v4.42A6.64,6.64,0,0,1,661.58,312Z" transform="translate(0.33 -35.75)"/><path class="cls-7" d="M921.86,301H898.78a6.65,6.65,0,0,1,0-13.29h23.08a6.65,6.65,0,0,1,0,13.29Zm-62.31,0H836.48a6.65,6.65,0,0,1,0-13.29h23.07a6.65,6.65,0,1,1,0,13.29Zm-62.3,0H774.18a6.65,6.65,0,0,1,0-13.29h23.07a6.65,6.65,0,0,1,0,13.29ZM735,301H711.88a6.65,6.65,0,1,1,0-13.29H735A6.65,6.65,0,0,1,735,301Z" transform="translate(0.33 -35.75)"/><path class="cls-7" d="M972.15,312a6.64,6.64,0,0,1-6.64-6.64V301h-4.43a6.65,6.65,0,0,1,0-13.29h17.71V305.4A6.64,6.64,0,0,1,972.15,312Z" transform="translate(0.33 -35.75)"/><path class="cls-7" d="M972.15,730.45a6.64,6.64,0,0,1-6.64-6.64V701.67a6.64,6.64,0,0,1,13.28,0v22.14A6.64,6.64,0,0,1,972.15,730.45Zm0-59.77a6.64,6.64,0,0,1-6.64-6.64V641.9a6.64,6.64,0,0,1,13.28,0V664A6.64,6.64,0,0,1,972.15,670.68Zm0-59.77a6.64,6.64,0,0,1-6.64-6.64V582.13a6.64,6.64,0,0,1,13.28,0v22.14A6.64,6.64,0,0,1,972.15,610.91Zm0-59.78a6.64,6.64,0,0,1-6.64-6.64V522.36a6.64,6.64,0,1,1,13.28,0v22.13A6.64,6.64,0,0,1,972.15,551.13Zm0-59.77a6.64,6.64,0,0,1-6.64-6.64V462.58a6.64,6.64,0,0,1,13.28,0v22.14A6.64,6.64,0,0,1,972.15,491.36Zm0-59.77a6.64,6.64,0,0,1-6.64-6.64V402.81a6.64,6.64,0,0,1,13.28,0V425A6.64,6.64,0,0,1,972.15,431.59Zm0-59.77a6.64,6.64,0,0,1-6.64-6.64V343a6.64,6.64,0,0,1,13.28,0v22.14A6.64,6.64,0,0,1,972.15,371.82Z" transform="translate(0.33 -35.75)"/><rect class="cls-7" x="638.99" y="232.02" width="53.13" height="53.13" rx="5.41"/><rect class="cls-7" x="940.07" y="232.02" width="53.13" height="53.13" rx="5.41"/><rect class="cls-7" x="638.99" y="701.34" width="53.13" height="53.13" rx="5.41"/><rect class="cls-7" x="940.07" y="701.34" width="53.13" height="53.13" rx="5.41"/><path class="cls-8" d="M995.1,1012.47c-4.53,2.38-9.79,2.54-12.81-1.59-9.46-12.94-35.68-51.29-48.52-70.89a9.45,9.45,0,0,0-12.84-2.89c-14.82,9-46.37,28.32-58.41,35.84-15.54,9.71-18.81,8.25-21.66-9.82C835.65,930,808.23,746.39,800,691.38a7.32,7.32,0,0,1,11.09-7.31c46.31,28.56,197.77,122,220.06,136.4,39.68,25.63,32.67,20.55-20.36,56.73-2.32,1.59-12.73,9.08-20.2,14.46A9.48,9.48,0,0,0,988.56,905c14.32,19.24,41.28,57.66,49.16,69.17a8.78,8.78,0,0,1-1.85,11.89A356.8,356.8,0,0,1,995.1,1012.47Z" transform="translate(0.33 -35.75)"/></svg>