<svg id="Capa_1" data-name="Capa 1" xmlns="http://www.w3.org/2000/svg" xmlns:xlink="http://www.w3.org/1999/xlink" viewBox="0 0 1080 1080"><defs><style>.cls-1{fill:#fbc7a1;}.cls-2{fill:#f8ae78;}.cls-3{fill:#fbaf79;}.cls-4{fill:#4f6d8e;}.cls-5{fill:url(#Cielo);}.cls-6{fill:#fdd13b;}.cls-7{fill:#e5bd36;}.cls-8{fill:url(#Degradado_sin_nombre_89);}.cls-9{fill:url(#Cielo-2);}.cls-10{fill:url(#Cielo-3);}</style><linearGradient id="Cielo" x1="-101.33" y1="856.72" x2="937.79" y2="55.11" gradientUnits="userSpaceOnUse"><stop offset="0" stop-color="#cce0f4"/><stop offset="0.06" stop-color="#c3dcf2"/><stop offset="0.17" stop-color="#a9d2ee"/><stop offset="0.31" stop-color="#80c2e7"/><stop offset="0.46" stop-color="#47acde"/><stop offset="0.57" stop-color="#1e9cd7"/><stop offset="0.87" stop-color="#0075be"/><stop offset="0.99" stop-color="#005b97"/></linearGradient><linearGradient id="Degradado_sin_nombre_89" x1="522.25" y1="653.62" x2="625.5" y2="535.14" gradientUnits="userSpaceOnUse"><stop offset="0" stop-color="#0075be"/><stop offset="0.99" stop-color="#005b97"/></linearGradient><linearGradient id="Cielo-2" x1="711.75" y1="1123.95" x2="757.79" y2="940.82" gradientTransform="translate(-199.17 186.11) rotate(-12.59)" xlink:href="#Cielo"/><linearGradient id="Cielo-3" x1="301.05" y1="1121.85" x2="347.08" y2="938.72" gradientTransform="matrix(0.98, 0.22, 0.22, -0.98, -209.46, 1890.83)" xlink:href="#Cielo"/></defs><path class="cls-1" d="M160.18,654.43c29.78-13.7,56.91-9.32,84,8.94,41.7,28.12,83.83,55.8,127.29,81,33.87,19.67,52.71,47.56,59.79,85.06,5.86,31,12.23,61.95,18.38,92.92-25.66,6.13-51.27,12.46-77,18.35-44.34,10.17-88.74,20.06-133.11,30.06-2.25-7.75-4.38-15.54-6.77-23.24-9.19-29.73-21.18-57.25-45-79.33-28.54-26.43-56.47-53.7-81.87-83.33-23.5-27.41-42.2-57.25-48.82-93.53-3-16.34-2.38-32.89-4-49.29a425.31,425.31,0,0,1-.39-71.55c2.18-29.77,1.76-59.51.7-89.2-1.21-34-6.44-68.21,9.58-100.51,24.77-3.85,47.09,10.86,54.8,38.23,4.85,17.21,7.17,35.16,10.26,52.83q13.27,75.81,26.24,151.68c-6.64,1.45-11.94,5.58-17.41,9.15-37.17,24.23-48.62,87.6-.47,117.43,22.16,13.72,43.81,28.25,65.76,42.31q17.63,11.28,35.48,22.2c9.32,5.7,18.81,4.73,23.81-2.13,5.28-7.24,2.78-16.78-6.27-23.77-1.16-.89-2.45-1.61-3.69-2.4-31.56-20.16-63-40.53-94.72-60.39-22-13.76-27.61-37-12.39-56.28C148.89,664,154.88,659.48,160.18,654.43Z"/><path class="cls-1" d="M630.3,921.84c7.4-35.9,14.24-71.93,22.37-107.66,6.3-27.68,22.16-48.64,46.75-63.81,45.87-28.31,91.61-56.91,136.32-87,27.15-18.28,54.14-22.51,83.87-8.91,3.8,3.44,7.77,6.72,11.37,10.37,19.34,19.57,16.81,45.26-6.17,60q-49.14,31.56-98.61,62.65c-9.65,6.1-13.37,15.89-8.66,23.94s15,9.24,25.31,2.73Q893.58,782,944.16,749.58c24.65-15.77,34.74-39.12,30.1-67.12-4.68-28.19-20.87-48.91-48.77-58.89,11.33-65.38,22.41-130.79,34.1-196.1,5.71-31.92,29.75-51,57.21-46.64,11.77,22.37,12,46.55,11.08,70.89-.62,16.12-2.09,32.24-1.93,48.35.3,28.26-1.22,56.5,1.6,84.79,2.59,26-1,52.07-1.89,78.11a177.83,177.83,0,0,1-14.44,65.14c-12.73,29.56-33.33,53.51-55.05,76.42-22.51,23.74-45.84,46.74-69.4,69.45-27.72,26.7-37.58,61.28-44.77,97.25-40-9.15-80-18.19-119.91-27.49C691.46,936.61,660.9,929.15,630.3,921.84Z"/><path class="cls-2" d="M842,971.23c7.19-36,17-70.55,44.77-97.25,23.56-22.71,46.89-45.71,69.4-69.45,21.72-22.91,42.32-46.86,55.05-76.42A177.83,177.83,0,0,0,1025.66,663c.84-26,4.48-52.14,1.89-78.11-2.82-28.29-1.3-56.53-1.6-84.79-.16-16.11,1.31-32.23,1.93-48.35.92-24.34.69-48.52-11.08-70.89,14.73,1.19,23.86,10.43,30.67,22.25a68.28,68.28,0,0,1,9.13,35.79c-1.3,69.91-.38,139.81-.34,209.72,0,47.68-6.84,93.6-37.41,132.9-15.84,20.37-33.26,39.29-51.29,57.68-12.11,12.34-23.88,25.21-37.24,36.08-31.84,25.9-47.49,60.66-57.21,99.07-.27,1.07-.67,2.1-1,3.14C861.68,977.26,851.92,973.87,842,971.23Z"/><path class="cls-2" d="M63,380.83c-16,32.3-10.79,66.46-9.58,100.51,1.06,29.69,1.48,59.43-.7,89.2a425.31,425.31,0,0,0,.39,71.55c1.57,16.4,1,32.95,4,49.29,6.62,36.28,25.32,66.12,48.82,93.53,25.4,29.63,53.33,56.9,81.87,83.33,23.85,22.08,35.84,49.6,45,79.33,2.39,7.7,4.52,15.49,6.77,23.24-10.08,3.83-20.64,5.67-31.23,7.41-2.87-9-5.66-18.09-8.63-27.09-9-27.27-22.63-51.27-44.68-70.62-22.93-20.14-43.58-42.75-65-64.47-42.38-42.92-66.6-92.95-66.29-154.26.38-75.79-.49-151.58-.27-227.37a59.91,59.91,0,0,1,14.51-39.5C44.5,387.28,52.14,381.05,63,380.83Z"/><path class="cls-3" d="M160.18,654.43c-5.3,5.05-11.29,9.57-15.78,15.26C129.18,689,134.8,712.21,156.79,726c31.74,19.86,63.16,40.23,94.72,60.39,1.24.79,2.53,1.51,3.69,2.4,9.05,7,11.55,16.53,6.27,23.77-5,6.86-14.49,7.83-23.81,2.13q-17.85-10.92-35.48-22.2c-22-14.06-43.6-28.59-65.76-42.31-48.15-29.83-36.7-93.2.47-117.43,5.47-3.57,10.77-7.7,17.41-9.15Z"/><path class="cls-3" d="M925.49,623.57c27.9,10,44.09,30.7,48.77,58.89,4.64,28-5.45,51.35-30.1,67.12q-50.61,32.37-101.31,64.58c-10.27,6.51-20.67,5.22-25.31-2.73s-1-17.84,8.66-23.94q49.38-31.2,98.61-62.65c23-14.77,25.51-40.46,6.17-60-3.6-3.65-7.57-6.93-11.37-10.37Z"/><path class="cls-4" d="M622.43,596.65c19.87-1.66,29.64,12.1,39.43,25.84-3.9,35.32-13.33,44.25-48.79,46.23l-33.86-.29c-37.16-1.75-74.34-1.41-111.51-.18-36.2-2.37-44.18-9.8-49.15-45.76,9.11-14.39,20.81-25,38.8-26.3l29.59.38,39.21-.05h28.18Z"/><path class="cls-5" d="M895,325.3c0-8.93-3.53-14.05-12.83-16-15.58-3.31-30.89-7.89-46.4-11.53-8.93-2.09-13.72-6.59-16.16-16.07a225.35,225.35,0,0,0-25.86-61.91c-5-8.14-4.86-14.9.31-22.83,8.7-13.36,16.47-27.31,24.91-40.84,3.85-6.16,4.61-11.06-.6-17.42-13.89-17-28.52-33.19-45.35-47.19-19.18-15.95-21.33-15.6-41.49,1.58-20.46,8.7-24.3,35.48-84.69-7.16-46.19-28.42-52.29-23.4-54.95-66.08-.42-6.8-4.42-11.72-12.71-12.08-9.38-.4-41.08-3.21-47.57-3.09-39.35.74-41.23.43-48.32,39.19C478.44,70.1,465,79,440.56,89.22c-17.59,7.35-35.36,21.69-53.16,22-18.77.35-34.75-18-52.08-27.93-7-4-12.6-4.14-19.19,1.38a522,522,0,0,0-46,44c-12.14,13-14.45,24.2-2.19,37.72,23.42,25.85,18.57,50.19,6.91,82.43-14.14,39.08-35.74,57.1-74.14,60.74-11.9,1.13-15.63,8.3-15.42,19.46.36,18.9,1.22,37.92-.38,56.7-1.64,19.24,5.59,28.87,24.6,30.33,33.15,2.56,48.67,19.94,62.61,51.72,16.55,37.74,17.8,66.45-9.07,96.65-6.39,7.18-5.68,13.75.74,21.8,13,16.27,28.35,30,42.87,44.7C319.74,644.14,332.18,644,346.7,633c21.15-16.12,43.4-29.15,70.09-10.59.41.29,1.16.09,1.75.12,9.12-14.4,20.82-25,38.81-26.3-10.68-29.46-30.48-53-50-76.67C389,497.2,370.48,475,356.56,449.44,287.85,323.2,371.22,162.62,514.1,146.16c6.42-.74,12.87-1.29,19.31-1.93,91.74-5.15,185.32,58.91,208.88,159.65,17.22,73.67-4.16,137.29-51.35,194.29-25.55,30.86-53.36,60.33-68.51,98.49,19.87-1.67,29.64,12.09,39.43,25.83,24.4-16.5,46.47-9.18,67.73,6.6a4.94,4.94,0,0,0,1.7.4c20.47,18,24,18.45,42.8,1.12,13-12,24.63-25.49,37.48-37.67,12-11.4,12.44-22,2.15-35.07-8-10.14-13.36-22.26-20.35-33.21-4.27-6.69-4.72-12.42-.41-19.57,12.27-20.35,20.89-42.4,27-65.29,2.11-7.86,5.67-12,13.75-13.77,16.11-3.56,32-8.36,48-12.13,8.8-2.06,13.23-6.71,13.18-15.92C894.81,373.75,894.86,349.53,895,325.3ZM771.08,556.38c-3.34-5.92-6.57-11.92-10.11-17.69C764.51,544.46,767.74,550.46,771.08,556.38Z"/><path class="cls-6" d="M613.07,668.72l-33.86-.29c-37.17-1.75-74.34-1.41-111.51-.18,0,10.53-.26,21.08.14,31.6,1.1,29.08,17.35,45.23,46.33,46,11.09.28,41.54.4,45.66.44C595.64,746.6,612,731,613,695.33,613.3,686.47,613.07,677.59,613.07,668.72Z"/><path class="cls-6" d="M486.94,596.57l-29.59-.38c-10.68-29.45-30.48-53-50-76.66C389,497.2,370.48,475,356.56,449.44,287.85,323.2,371.22,162.62,514.1,146.16c6.42-.74,12.87-1.29,19.31-1.93,5.66,1.62,11.24,3.58,17,4.82C693.64,180.06,760.84,344,680.61,466.5c-27.06,41.32-64.75,74.66-87.58,119.89-4.68-5.48-2.93-10.34-2.94-14.73-.14-60.31.3-120.62-.37-180.92-.17-14.79,3.53-20.38,19.51-21.35C643.87,367.3,668,337.53,662,307.5s-27.85-48.85-55.21-47.29c-28.21,1.61-51.24,24.92-52,54.87-.37,14.27-6.86,17.16-18.84,15.87-11.57-1.25-9.3-10.05-10-17.4-3.32-35.2-34.78-59.81-66.32-51.91-25.22,6.32-44.55,30.29-43.35,53.76,1.51,29.42,21.27,50.76,53.49,53.91,14.35,1.4,17.61,6.74,17.53,19.74C486.81,458.22,487,527.4,486.94,596.57Z"/><path class="cls-7" d="M486.94,596.57c.05-69.17-.13-138.35.35-207.52.08-13-3.18-18.34-17.53-19.74-32.22-3.15-52-24.49-53.49-53.91-1.2-23.47,18.13-47.44,43.35-53.76,31.54-7.9,63,16.71,66.32,51.91.69,7.35-1.58,16.15,10,17.4,12,1.29,18.47-1.6,18.84-15.87.78-29.95,23.81-53.26,52-54.87,27.36-1.56,49.2,17.15,55.21,47.29s-18.13,59.8-52.77,61.89c-16,1-19.68,6.56-19.51,21.35.67,60.3.23,120.61.37,180.92,0,4.39-1.74,9.25,2.94,14.73,22.83-45.23,60.52-78.57,87.58-119.89,80.23-122.52,13-286.44-130.21-317.45-5.75-1.24-11.33-3.2-17-4.82,91.74-5.15,185.32,58.91,208.88,159.65,17.22,73.67-4.16,137.29-51.35,194.29-25.55,30.86-53.36,60.33-68.51,98.49l-68.1-.15q.06-103.5.09-207c0-9.44,1.54-19.18-13.29-19.61-15.36-.44-15.18,8.88-15.15,19.63q.24,103.5.17,207Zm116.68-265.5c12.23.19,21.26-3,21.36-16.09.08-10.7-6.69-15.59-17-15.73-13.11-.17-16.74,8.62-17.72,19.43C589.3,329.25,595.83,331.62,603.62,331.07ZM487.08,319.83c-.27-13-4.72-20.61-16.71-20.32-9.84.24-15.23,6.28-14.92,16,.35,11,7.42,15.07,17.65,15.51C482.61,331.48,487.85,328,487.08,319.83Z"/><path class="cls-6" d="M526.15,596.52q-.06-103.5-.17-207c0-10.75-.21-20.07,15.15-19.63,14.83.43,13.3,10.17,13.29,19.61q0,103.5-.09,207Z"/><path class="cls-6" d="M603.62,331.07c-7.79.55-14.32-1.82-13.36-12.39,1-10.81,4.61-19.6,17.72-19.43,10.31.14,17.08,5,17,15.73C624.88,328.05,615.85,331.26,603.62,331.07Z"/><path class="cls-6" d="M487.08,319.83c.77,8.12-4.47,11.65-14,11.23-10.23-.44-17.3-4.55-17.65-15.51-.31-9.76,5.08-15.8,14.92-16C482.36,299.22,486.81,306.79,487.08,319.83Z"/><rect class="cls-8" x="415.87" y="597.48" width="248.68" height="71.05" rx="10"/><rect class="cls-9" x="582.33" y="946.68" width="323.29" height="98.19" rx="18.52" transform="translate(234.95 -138.22) rotate(12.59)"/><rect class="cls-10" x="170.75" y="944.59" width="323.29" height="98.19" rx="18.52" transform="translate(873.4 1891.02) rotate(167.41)"/></svg>